# xmcd
#
# Track frame offsets:
#	150
#	52918
#	81161
#	113816
#	143601
#	179724
#	225817
#	270280
#
# Disc length: 3922 seconds
#
# Revision: 2
# Processed by: cddbd v1.4PL0 Copyright (c) Steve Scherf et al.
# Submitted via: EasyCDDAExtractor 5.0.7
#
DISCID=5a0f5008
DTITLE=CK - rgtrgt
DYEAR=1988
DGENRE=Acid Punk
TTITLE0=aa
TTITLE1=a
TTITLE2=d
TTITLE3=4
TTITLE4=g
TTITLE5=y
TTITLE6=u
TTITLE7=e
EXTD=
EXTT0=
EXTT1=
EXTT2=
EXTT3=
EXTT4=
EXTT5=
EXTT6=
EXTT7=
PLAYORDER=
